<?xml version="1.0" encoding="UTF-8"?>
<!-- Generator: Adobe Illustrator 27.0.1, SVG Export Plug-In . SVG Version: 6.00 Build 0)  -->
<svg xmlns="http://www.w3.org/2000/svg" xmlns:xlink="http://www.w3.org/1999/xlink" version="1.1" id="Layer_1" x="0px" y="0px" viewBox="0 0 841.5 216" style="enable-background:new 0 0 841.5 216;" xml:space="preserve">
<style type="text/css">
	.st0{fill:#FF7552;}
	.st1{fill:#7EABC1;}
	.st2{fill:url(#SVGID_1_);}
	.st3{fill:url(#SVGID_00000146479183254244822930000008340720091867294897_);}
	.st4{fill:url(#SVGID_00000129926677548543473080000010067728476849963144_);}
	.st5{fill:url(#SVGID_00000035514843908831678990000018146305489019450044_);}
</style>
<g>
	<g>
		<g>
			<g>
				<g>
					<path class="st0" d="M826.7,133.4c-0.1-0.1-0.2-0.1-0.3-0.1h-2.7h-0.9h-2.7c-0.1,0-0.2,0-0.3,0.1c-0.1,0.1-0.1,0.2-0.1,0.3       c0,0.1,0,0.2,0.1,0.3c0.1,0.1,0.2,0.1,0.3,0.1h2.7v7.6c0,0.1,0,0.2,0.1,0.3c0.1,0.1,0.2,0.1,0.3,0.1c0.1,0,0.2,0,0.3-0.1       c0.1-0.1,0.1-0.2,0.1-0.3v-7.6h2.7c0.1,0,0.2,0,0.3-0.1c0.1-0.1,0.1-0.2,0.1-0.3C826.8,133.6,826.8,133.5,826.7,133.4z"></path>
					<path class="st0" d="M828.5,142.2c-0.1,0-0.2,0-0.3-0.1c-0.1-0.1-0.1-0.2-0.1-0.3v-8c0-0.1,0-0.2,0.1-0.3       c0.1-0.1,0.2-0.1,0.3-0.1c0.2,0,0.3,0.1,0.4,0.2l3.8,7.6h-0.4l3.8-7.6c0.1-0.2,0.2-0.2,0.4-0.2c0.1,0,0.2,0,0.3,0.1       c0.1,0.1,0.1,0.2,0.1,0.3v8c0,0.1,0,0.2-0.1,0.3c-0.1,0.1-0.2,0.1-0.3,0.1c-0.1,0-0.2,0-0.3-0.1c-0.1-0.1-0.1-0.2-0.1-0.3v-6.9       l0.2,0l-3.4,6.9c-0.1,0.1-0.2,0.2-0.4,0.2c-0.2,0-0.3-0.1-0.4-0.3l-3.4-6.8l0.2-0.1v6.9c0,0.1,0,0.2-0.1,0.3       C828.8,142.1,828.7,142.2,828.5,142.2z"></path>
				</g>
				<g>
					<g>
						<path class="st0" d="M609.7,141.9c-3.6,0-6.7-1-9.4-2.9c-2.7-1.9-4.9-4.6-6.4-7.9c-1.5-3.3-2.3-7.2-2.3-11.6V53.4        c0-1.8,0.6-3.2,1.7-4.4c1.1-1.1,2.6-1.7,4.4-1.7c1.8,0,3.2,0.6,4.4,1.7c1.1,1.1,1.7,2.6,1.7,4.4v66.1c0,3,0.6,5.4,1.7,7.4        c1.1,1.9,2.6,2.9,4.4,2.9h3c1.6,0,2.9,0.6,3.9,1.7c1,1.1,1.5,2.6,1.5,4.4c0,1.8-0.8,3.2-2.3,4.4c-1.5,1.1-3.5,1.7-5.9,1.7        H609.7z"></path>
						<path class="st0" d="M680.2,91.7c-2.9-5.1-6.9-9.1-11.9-12.1c-5-2.9-10.7-4.4-17-4.4c-6.3,0-12,1.5-17,4.4c-5,2.9-9,7-12,12.1        c-2.9,5.1-4.4,10.8-4.4,17.2c0,6.4,1.4,12.1,4.1,17.1c2.7,5,6.4,9,11.1,12c4.7,2.9,10,4.4,15.9,4.4c5.9,0,11.2-1.5,15.9-4.4        c2.9-1.8,5.4-4.1,7.5-6.7v4.6c0,1.8,0.6,3.3,1.8,4.4c1.2,1.2,2.6,1.8,4.4,1.8c1.8,0,3.3-0.6,4.4-1.8c1.2-1.2,1.8-2.6,1.8-4.4        v-27C684.6,102.5,683.1,96.8,680.2,91.7z M669.9,120.4c-1.9,3.4-4.4,6.1-7.6,8.1c-3.2,2-6.9,3-11,3c-4,0-7.7-1-11-3        c-3.3-2-5.9-4.7-7.8-8.1c-1.9-3.4-2.8-7.3-2.8-11.6c0-4.4,0.9-8.3,2.8-11.7c1.9-3.4,4.5-6.1,7.8-8.1c3.3-2,6.9-3,11-3        c4.1,0,7.8,1,11,3c3.2,2,5.8,4.7,7.6,8.1c1.9,3.4,2.8,7.3,2.8,11.7C672.7,113.1,671.8,117,669.9,120.4z"></path>
						<path class="st0" d="M789.3,142.4c-5.7,0-10.9-0.9-15.7-2.6c-4.8-1.7-8.5-3.9-11.2-6.6c-1.2-1.3-1.7-2.8-1.5-4.4        c0.2-1.7,1-3,2.4-4.1c1.6-1.3,3.2-1.8,4.8-1.6c1.6,0.2,2.9,0.9,4.1,2.1c1.4,1.5,3.6,3,6.6,4.3c3,1.3,6.4,2,10.1,2        c4.7,0,8.3-0.8,10.7-2.3c2.5-1.5,3.7-3.5,3.8-5.9c0.1-2.4-1.1-4.5-3.5-6.3c-2.4-1.8-6.7-3.2-13-4.4c-8.2-1.6-14.1-4-17.7-7.3        c-3.7-3.2-5.5-7.2-5.5-11.9c0-4.1,1.2-7.5,3.6-10.2c2.4-2.7,5.5-4.7,9.3-6.1c3.8-1.3,7.8-2,11.9-2c5.3,0,10.1,0.8,14.2,2.5        c4.1,1.7,7.4,4,9.8,7c1.1,1.3,1.7,2.6,1.6,4.1c-0.1,1.4-0.8,2.6-2.1,3.6c-1.3,0.9-2.8,1.2-4.6,0.8c-1.8-0.3-3.3-1-4.5-2.2        c-2-1.9-4.2-3.3-6.5-4c-2.3-0.7-5-1.1-8.1-1.1c-3.6,0-6.6,0.6-9,1.8c-2.5,1.2-3.7,3-3.7,5.3c0,1.5,0.4,2.8,1.2,3.9        c0.8,1.2,2.3,2.2,4.5,3.1c2.3,0.9,5.6,1.8,9.9,2.7c6.1,1.2,10.8,2.7,14.4,4.6c3.5,1.9,6,4,7.6,6.5c1.5,2.5,2.3,5.3,2.3,8.5        c0,3.7-1,7.1-3,10.1s-4.9,5.4-8.7,7.1C799.8,141.5,795,142.4,789.3,142.4z"></path>
						<path class="st0" d="M714.4,81.7c0.1,3.2,3,5.7,6.1,5c1.6-0.4,3.2-0.5,5-0.5c4.1,0,7.8,1,11,3c3.2,2,5.8,4.7,7.7,8.1        c1.9,3.4,2.8,7.3,2.8,11.6c0,4.3-0.9,8.2-2.8,11.6c-1.9,3.5-4.5,6.2-7.7,8.2c-3.2,2-6.9,3-11,3c-4,0-7.7-1-11-3        c-3.3-2-5.8-4.7-7.7-8.2c-1.9-3.5-2.8-7.3-2.8-11.6c0-0.3,0-0.5,0-0.7V86.2c0,0,0,0,0,0V53.5c0-1.9-0.6-3.3-1.7-4.5        c-1.1-1.1-2.6-1.7-4.5-1.7c-1.8,0-3.3,0.6-4.4,1.7c-1.2,1.1-1.8,2.6-1.8,4.5v55.2c0.1,6.4,1.6,12.1,4.5,17.2        c2.9,5.1,6.9,9.1,11.9,12.1c5,2.9,10.7,4.4,17,4.4c6.4,0,12.1-1.5,17.1-4.4c5-2.9,9-7,11.9-12.1c2.9-5.1,4.4-10.8,4.4-17.2        c0-6.4-1.4-12.1-4.1-17.1c-2.7-5-6.4-9-11.1-12c-4.7-2.9-10-4.4-15.9-4.4c-3.5,0-6.7,0.5-9.7,1.6        C715.7,77.4,714.4,79.5,714.4,81.7L714.4,81.7z"></path>
					</g>
					<g>
						<g>
							<g>
								<g>
									<path class="st1" d="M408.4,89.1c-2.5-4.6-6-8.1-10.4-10.5c-4.4-2.4-9.4-3.6-15-3.6c-5.3,0-10.1,1.2-14.4,3.5           c-2.3,1.3-4.4,2.8-6.2,4.6v-1.3c0-1.9-0.6-3.3-1.7-4.5c-1.1-1.1-2.6-1.7-4.5-1.7c-1.8,0-3.3,0.6-4.4,1.7           c-1.2,1.1-1.8,2.6-1.8,4.5v54c0,1.8,0.6,3.3,1.8,4.4c1.2,1.2,2.6,1.8,4.4,1.8c1.9,0,3.3-0.6,4.5-1.8           c1.1-1.2,1.7-2.6,1.7-4.4v-34.2c0-3,0.8-5.6,2.4-7.9c1.6-2.3,3.8-4.1,6.5-5.5c2.7-1.4,5.8-2.1,9.2-2.1c3.7,0,7,0.7,9.9,2.1           c2.9,1.4,5.1,3.6,6.8,6.5c1.7,2.9,2.5,6.7,2.5,11.3v29.8c0,1.8,0.6,3.3,1.8,4.4c1.2,1.2,2.6,1.8,4.4,1.8           c1.8,0,3.3-0.6,4.4-1.8c1.2-1.2,1.8-2.6,1.8-4.4v-29.8C412.2,99.4,410.9,93.7,408.4,89.1z"></path>
									<path class="st1" d="M558.3,91.7c-2.9-5.1-6.9-9.1-11.9-12.1c-5-2.9-10.7-4.4-17-4.4c-6.3,0-12,1.5-17,4.4           c-5,2.9-9,7-12,12.1c-2.9,5.1-4.4,10.8-4.4,17.2c0,6.4,1.4,12.1,4.1,17.1c2.7,5,6.4,9,11.1,12c4.7,2.9,10,4.4,15.9,4.4           c5.9,0,11.2-1.5,15.9-4.4c2.9-1.8,5.4-4.1,7.5-6.7v4.6c0,1.8,0.6,3.3,1.8,4.4c1.2,1.2,2.6,1.8,4.4,1.8           c1.8,0,3.3-0.6,4.4-1.8c1.2-1.2,1.8-2.6,1.8-4.4v-27C562.7,102.5,561.2,96.8,558.3,91.7z M548.1,120.4           c-1.9,3.4-4.4,6.1-7.6,8.1c-3.2,2-6.9,3-11,3c-4,0-7.7-1-11-3c-3.3-2-5.9-4.7-7.8-8.1c-1.9-3.4-2.8-7.3-2.8-11.6           c0-4.4,0.9-8.3,2.8-11.7c1.9-3.4,4.5-6.1,7.8-8.1c3.3-2,6.9-3,11-3c4.1,0,7.8,1,11,3c3.2,2,5.8,4.7,7.6,8.1           c1.9,3.4,2.8,7.3,2.8,11.7C550.8,113.1,549.9,117,548.1,120.4z"></path>
								</g>
							</g>
							<path class="st1" d="M453.2,143.5c-17.5,0-31.8-14.2-31.8-31.7V81.6c0-3.2,2.6-5.8,5.9-5.8c3.2,0,5.9,2.6,5.9,5.8v30.3         c0,11,9,20,20.1,20c11.1,0,20.1-9,20.1-20V81.5c0-3.2,2.6-5.9,5.9-5.9c3.2,0,5.9,2.6,5.9,5.9v30.3         C485,129.3,470.7,143.5,453.2,143.5z"></path>
							<path class="st1" d="M453.2,180.4c-14.8,0-27.6-10-31-24.4c-0.7-3.1,1.2-6.3,4.3-7c3.1-0.7,6.3,1.2,7,4.3         c2.1,9,10.2,15.4,19.6,15.4c9.4,0,17.5-6.3,19.6-15.4c0.7-3.1,3.9-5.1,7-4.4c3.1,0.7,5.1,3.9,4.4,7         C480.8,170.3,468.1,180.4,453.2,180.4z"></path>
						</g>
						<path class="st1" d="M340.6,106.9c0-6.6-1.2-12.5-3.7-17.6c-2.5-5.1-6.1-9.1-10.8-12c-4.7-2.9-10.3-4.3-16.9-4.3        c-6.6,0-12.5,1.5-17.6,4.5c-5.1,3-9.1,7.1-12,12.4c-2.9,5.3-4.3,11.3-4.3,18.2c0,6.8,1.5,12.8,4.6,18.1        c3.1,5.3,7.3,9.4,12.7,12.4c5.4,3,11.6,4.5,18.6,4.5c3.9,0,7.9-0.7,12.2-2.1c4.2-1.4,7.8-3.3,10.6-5.5c1.4-1.1,2.1-2.4,2-3.9        c-0.1-1.5-0.8-2.9-2.3-4.2c-1.1-0.9-2.4-1.4-3.8-1.3c-1.5,0-2.8,0.5-4.1,1.4c-1.7,1.3-3.9,2.4-6.6,3.3c-2.7,1-5.4,1.4-8,1.4        c-4.8,0-9-1-12.7-3.2c-3.7-2.1-6.6-5-8.7-8.6c-2.1-3.6-3.2-7.7-3.2-12.4c0-4.6,0.9-8.8,2.6-12.4c1.8-3.7,4.3-6.5,7.8-8.6        c3.4-2.1,7.5-3.2,12.3-3.2c4.2,0,7.8,1,10.7,2.9c2.9,1.9,5.2,4.6,6.8,7.9c1.3,2.7,2.1,5.6,2.4,8.9h-28.3c-2.8,0-5,2.3-5,5        s2.3,5,5,5h34.5c2.8,0,5-2.3,5-5c0,0,0,0,0,0C340.5,108,340.6,107.5,340.6,106.9z"></path>
					</g>
				</g>
			</g>
		</g>
	</g>
	<g>
		<linearGradient id="SVGID_1_" gradientUnits="userSpaceOnUse" x1="30.2594" y1="171.241" x2="147.8818" y2="49.168">
			<stop offset="0" style="stop-color:#285C79"></stop>
			<stop offset="0.5399" style="stop-color:#7EABC1"></stop>
			<stop offset="1" style="stop-color:#FF7652"></stop>
		</linearGradient>
		<path class="st2" d="M108.1,56.4c-24,0-44.2,16.5-50,38.8h100C152.4,72.9,132.2,56.4,108.1,56.4z"></path>
		
			<linearGradient id="SVGID_00000039835110046808796100000018264426463171342219_" gradientUnits="userSpaceOnUse" x1="5.0463" y1="146.1082" x2="122.6687" y2="24.0352">
			<stop offset="0" style="stop-color:#285C79"></stop>
			<stop offset="0.5399" style="stop-color:#7EABC1"></stop>
			<stop offset="1" style="stop-color:#FF7652"></stop>
		</linearGradient>
		<path style="fill:url(#SVGID_00000039835110046808796100000018264426463171342219_);" d="M41.6,183.1c-3.4,0-6.9-1.4-9.4-4.1    c-17.9-19.3-27.7-44.5-27.7-70.8c0-26.3,9.8-51.4,27.7-70.8c4.8-5.2,12.9-5.5,18.1-0.7c5.2,4.8,5.5,12.9,0.7,18.1    c-13.5,14.6-20.9,33.6-20.9,53.4c0,19.9,7.4,38.9,20.9,53.5c4.8,5.2,4.5,13.3-0.7,18.1C47.8,182,44.7,183.1,41.6,183.1z"></path>
		
			<linearGradient id="SVGID_00000158000509952815483820000005925093486210719117_" gradientUnits="userSpaceOnUse" x1="64.0588" y1="209.4039" x2="229.6173" y2="37.581">
			<stop offset="0" style="stop-color:#285C79"></stop>
			<stop offset="0.5399" style="stop-color:#7EABC1"></stop>
			<stop offset="1" style="stop-color:#FF7652"></stop>
		</linearGradient>
		<path style="fill:url(#SVGID_00000158000509952815483820000005925093486210719117_);" d="M190,121.5H58.3    c5.8,22.2,25.9,38.8,50,38.8c10.3,0,20.2-3,28.6-8.6c5.1-3.4,11.8-2.7,16.1,1.6l0.3,0.3c5.3,5.3,4.8,13.9-0.7,18.6    c-9.4,6.5-20,10.9-31.3,12.9c-0.5,0.1-1,0.2-1.5,0.3c-3.6,0.6-7.3,0.9-11,1c-6.2,0.1-12.4-0.5-18.5-1.8c-7-1.5-13.8,2.9-15.4,9.8    c-1.5,7,2.9,13.8,9.8,15.4c8,1.7,16.2,2.6,24.4,2.4c4.4-0.1,8.8-0.4,13.1-1.1c0.3,0,0.5,0,0.8-0.1c22-3.1,42.4-13.2,58.4-29.2    c0.2-0.2,1.1-1.2,1.2-1.3c10.4-10.8,18.2-23.4,23-37.2C209.3,132.5,201.3,121.5,190,121.5z"></path>
		
			<linearGradient id="SVGID_00000055674704493058970600000017255582870385752725_" gradientUnits="userSpaceOnUse" x1="27.631" y1="169.3954" x2="145.2534" y2="47.3224">
			<stop offset="0" style="stop-color:#285C79"></stop>
			<stop offset="0.5399" style="stop-color:#7EABC1"></stop>
			<stop offset="1" style="stop-color:#FF7652"></stop>
		</linearGradient>
		<path style="fill:url(#SVGID_00000055674704493058970600000017255582870385752725_);" d="M196.2,96.7c-5.6,0-10.7-3.7-12.3-9.3    c-9.5-33.8-40.7-57.4-75.9-57.4c-6.7,0-13.3,0.8-19.7,2.5c-6.8,1.7-13.8-2.4-15.6-9.2C71.1,16.5,75.2,9.5,82,7.8    c8.5-2.2,17.2-3.3,26-3.3c46.5,0,87.8,31.2,100.5,76c1.9,6.8-2,13.9-8.8,15.8C198.5,96.6,197.4,96.7,196.2,96.7z"></path>
	</g>
</g>
</svg>
